<svg xmlns="http://www.w3.org/2000/svg" viewBox="-35.364998168945306 86.36000061035156 645.72998046875 394.8099994659424"> <svg xmlns="http://www.w3.org/2000/svg" xmlns:xlink="http://www.w3.org/1999/xlink" xmlnsSerif="http://www.serif.com/" viewBox="837.0139770507812 837.0139770507812 1325.97607421875 1325.97607421875" version="1.1" xml:space="preserve" height="180" width="180" y="156.36000061035156" x="197.5" preserveAspectRatio="xMinYMin" fill-rule="evenodd" clip-rule="evenodd" stroke-linejoin="round" stroke-miterlimit="2" style="overflow: visible;"><path d="M2162.99,837.014L2041.99,1079.01L1611.99,1079.01L1420,1462.99L1635,1892.99L1500,2162.99L1150,1462.99L1341.99,1079.01L958.014,1079.01L837.014,837.014L2162.99,837.014Z" style="fill: #FFFFFF; fill-opacity: 1;"></path><path d="M1713.5,1735.99L1578.5,1465.99L1701.99,1219.01L1971.99,1219.01L1713.5,1735.99Z" style="fill: #25A1B0; fill-opacity: 1;"></path></svg> <svg y="394.3199996948242" viewBox="0.8500000238418579 4.070000171661377 243.9499969482422 16.850000381469727" x="165.52500213623046" height="16.850000381469727" width="243.9499969482422" style="overflow: visible;"><g fill="#25A1B0" fill-opacity="1" style=""><path d="M5.53 17.53L5.53 17.53Q4.12 17.53 2.84 17.07Q1.55 16.61 0.85 15.89L0.85 15.89L1.37 14.87Q2.03 15.52 3.16 15.96Q4.28 16.40 5.53 16.40L5.53 16.40Q6.71 16.40 7.46 16.10Q8.21 15.80 8.56 15.30Q8.91 14.80 8.91 14.18L8.91 14.18Q8.91 13.45 8.49 13.00Q8.06 12.55 7.38 12.29Q6.70 12.02 5.87 11.83Q5.04 11.63 4.21 11.40Q3.38 11.18 2.69 10.80Q2.00 10.42 1.58 9.80Q1.15 9.18 1.15 8.17L1.15 8.17Q1.15 7.24 1.65 6.45Q2.14 5.67 3.17 5.19Q4.19 4.72 5.80 4.72L5.80 4.72Q6.86 4.72 7.90 5.01Q8.95 5.31 9.70 5.83L9.70 5.83L9.25 6.89Q8.44 6.35 7.53 6.10Q6.62 5.85 5.78 5.85L5.78 5.85Q4.64 5.85 3.91 6.16Q3.17 6.46 2.82 6.98Q2.47 7.49 2.47 8.14L2.47 8.14Q2.47 8.87 2.89 9.32Q3.31 9.77 4.01 10.03Q4.70 10.28 5.53 10.48Q6.35 10.67 7.17 10.91Q7.99 11.14 8.69 11.51Q9.38 11.88 9.80 12.49Q10.22 13.10 10.22 14.09L10.22 14.09Q10.22 15.01 9.72 15.80Q9.22 16.58 8.18 17.06Q7.15 17.53 5.53 17.53ZM17.60 17.51L17.60 17.51Q16.24 17.51 15.15 16.89Q14.06 16.27 13.43 15.18Q12.80 14.09 12.80 12.69L12.80 12.69Q12.80 11.27 13.43 10.19Q14.06 9.11 15.14 8.50Q16.22 7.88 17.60 7.88L17.60 7.88Q19.01 7.88 20.10 8.50Q21.19 9.11 21.81 10.19Q22.43 11.27 22.43 12.69L22.43 12.69Q22.43 14.09 21.81 15.18Q21.19 16.27 20.09 16.89Q18.99 17.51 17.60 17.51ZM17.60 16.38L17.60 16.38Q18.63 16.38 19.42 15.92Q20.21 15.46 20.67 14.63Q21.13 13.79 21.13 12.69L21.13 12.69Q21.13 11.57 20.67 10.75Q20.21 9.92 19.42 9.46Q18.63 9.00 17.62 9.00L17.62 9.00Q16.61 9.00 15.82 9.46Q15.03 9.92 14.56 10.75Q14.09 11.57 14.09 12.69L14.09 12.69Q14.09 13.79 14.56 14.63Q15.03 15.46 15.82 15.92Q16.61 16.38 17.60 16.38ZM27.22 17.42L25.94 17.42L25.94 4.07L27.22 4.07L27.22 17.42ZM35.59 17.51L35.59 17.51Q34.38 17.51 33.48 17.06Q32.58 16.61 32.09 15.71Q31.59 14.81 31.59 13.46L31.59 13.46L31.59 7.97L32.87 7.97L32.87 13.32Q32.87 14.83 33.62 15.60Q34.36 16.36 35.71 16.36L35.71 16.36Q36.70 16.36 37.43 15.96Q38.16 15.55 38.55 14.78Q38.93 14.00 38.93 12.92L38.93 12.92L38.93 7.97L40.21 7.97L40.21 17.42L38.99 17.42L38.99 14.83L39.19 15.30Q38.74 16.34 37.79 16.93Q36.85 17.51 35.59 17.51ZM48.60 17.51L48.60 17.51Q47.20 17.51 46.09 16.89Q44.98 16.27 44.35 15.18Q43.72 14.09 43.72 12.69L43.72 12.69Q43.72 11.27 44.35 10.19Q44.98 9.11 46.09 8.50Q47.20 7.88 48.60 7.88L48.60 7.88Q49.81 7.88 50.78 8.35Q51.75 8.82 52.31 9.76L52.31 9.76L51.35 10.40Q50.87 9.68 50.15 9.34Q49.43 9.00 48.58 9.00L48.58 9.00Q47.57 9.00 46.76 9.46Q45.95 9.92 45.49 10.75Q45.02 11.57 45.02 12.69L45.02 12.69Q45.02 13.81 45.49 14.63Q45.95 15.46 46.76 15.92Q47.57 16.38 48.58 16.38L48.58 16.38Q49.43 16.38 50.15 16.04Q50.87 15.70 51.35 14.99L51.35 14.99L52.31 15.64Q51.75 16.56 50.78 17.04Q49.81 17.51 48.60 17.51ZM56.99 17.42L55.71 17.42L55.71 7.97L56.99 7.97L56.99 17.42ZM56.36 5.89L56.36 5.89Q55.96 5.89 55.69 5.62Q55.42 5.35 55.42 4.97L55.42 4.97Q55.42 4.59 55.69 4.33Q55.96 4.07 56.36 4.07L56.36 4.07Q56.75 4.07 57.02 4.32Q57.29 4.57 57.29 4.95L57.29 4.95Q57.29 5.35 57.03 5.62Q56.77 5.89 56.36 5.89ZM65.30 17.51L65.30 17.51Q63.94 17.51 62.85 16.89Q61.76 16.27 61.13 15.18Q60.50 14.09 60.50 12.69L60.50 12.69Q60.50 11.27 61.13 10.19Q61.76 9.11 62.84 8.50Q63.92 7.88 65.30 7.88L65.30 7.88Q66.71 7.88 67.80 8.50Q68.89 9.11 69.51 10.19Q70.13 11.27 70.13 12.69L70.13 12.69Q70.13 14.09 69.51 15.18Q68.89 16.27 67.79 16.89Q66.69 17.51 65.30 17.51ZM65.30 16.38L65.30 16.38Q66.33 16.38 67.12 15.92Q67.91 15.46 68.37 14.63Q68.83 13.79 68.83 12.69L68.83 12.69Q68.83 11.57 68.37 10.75Q67.91 9.92 67.12 9.46Q66.33 9.00 65.32 9.00L65.32 9.00Q64.31 9.00 63.52 9.46Q62.73 9.92 62.26 10.75Q61.79 11.57 61.79 12.69L61.79 12.69Q61.79 13.79 62.26 14.63Q62.73 15.46 63.52 15.92Q64.31 16.38 65.30 16.38ZM74.92 17.42L73.64 17.42L73.64 7.97L74.86 7.97L74.86 10.57L74.66 10.08Q75.11 9.05 76.10 8.47Q77.09 7.88 78.46 7.88L78.46 7.88Q79.61 7.88 80.49 8.33Q81.36 8.77 81.86 9.67Q82.35 10.57 82.35 11.93L82.35 11.93L82.35 17.42L81.07 17.42L81.07 12.06Q81.07 10.57 80.33 9.80Q79.58 9.04 78.23 9.04L78.23 9.04Q77.22 9.04 76.47 9.44Q75.73 9.85 75.32 10.61Q74.92 11.38 74.92 12.46L74.92 12.46L74.92 17.42ZM90.72 17.51L90.72 17.51Q89.24 17.51 88.13 16.89Q87.01 16.27 86.38 15.18Q85.75 14.09 85.75 12.69L85.75 12.69Q85.75 11.29 86.36 10.21Q86.96 9.13 88.01 8.51Q89.06 7.88 90.38 7.88L90.38 7.88Q91.71 7.88 92.75 8.49Q93.78 9.09 94.37 10.18Q94.97 11.27 94.97 12.69L94.97 12.69Q94.97 12.78 94.96 12.88Q94.95 12.98 94.95 13.09L94.95 13.09L86.72 13.09L86.72 12.13L94.27 12.13L93.76 12.51Q93.76 11.48 93.32 10.68Q92.88 9.88 92.12 9.43Q91.37 8.98 90.38 8.98L90.38 8.98Q89.41 8.98 88.63 9.43Q87.86 9.88 87.43 10.69Q86.99 11.50 86.99 12.55L86.99 12.55L86.99 12.74Q86.99 13.82 87.47 14.64Q87.95 15.46 88.80 15.92Q89.66 16.38 90.76 16.38L90.76 16.38Q91.62 16.38 92.37 16.07Q93.11 15.77 93.65 15.14L93.65 15.14L94.37 15.97Q93.74 16.72 92.80 17.12Q91.85 17.51 90.72 17.51ZM101.02 17.51L101.02 17.51Q99.85 17.51 98.80 17.18Q97.76 16.85 97.16 16.34L97.16 16.34L97.74 15.34Q98.32 15.77 99.22 16.08Q100.12 16.40 101.11 16.40L101.11 16.40Q102.46 16.40 103.05 15.98Q103.64 15.55 103.64 14.85L103.64 14.85Q103.64 14.33 103.31 14.03Q102.98 13.73 102.44 13.58Q101.90 13.43 101.23 13.32Q100.57 13.21 99.91 13.07Q99.25 12.92 98.71 12.65Q98.17 12.37 97.84 11.88Q97.51 11.39 97.51 10.58L97.51 10.58Q97.51 9.81 97.94 9.20Q98.37 8.59 99.21 8.24Q100.04 7.88 101.25 7.88L101.25 7.88Q102.17 7.88 103.09 8.13Q104.00 8.37 104.60 8.77L104.60 8.77L104.04 9.79Q103.41 9.36 102.69 9.17Q101.97 8.98 101.25 8.98L101.25 8.98Q99.97 8.98 99.37 9.42Q98.77 9.86 98.77 10.55L98.77 10.55Q98.77 11.09 99.10 11.39Q99.43 11.70 99.98 11.87Q100.53 12.04 101.19 12.15Q101.84 12.26 102.50 12.41Q103.16 12.56 103.71 12.83Q104.26 13.09 104.59 13.56Q104.92 14.04 104.92 14.81L104.92 14.81Q104.92 15.64 104.46 16.25Q104.00 16.85 103.13 17.18Q102.26 17.51 101.02 17.51ZM117.54 17.51L117.54 17.51Q116.19 17.51 115.12 16.90Q114.05 16.29 113.44 15.21Q112.82 14.13 112.82 12.69L112.82 12.69Q112.82 11.27 113.44 10.18Q114.05 9.09 115.12 8.49Q116.19 7.88 117.54 7.88L117.54 7.88Q118.80 7.88 119.78 8.44Q120.76 9.00 121.34 10.07Q121.91 11.14 121.91 12.69L121.91 12.69Q121.91 14.24 121.33 15.31Q120.74 16.38 119.76 16.95Q118.78 17.51 117.54 17.51ZM117.63 16.38L117.63 16.38Q118.64 16.38 119.44 15.92Q120.24 15.46 120.70 14.63Q121.16 13.79 121.16 12.69L121.16 12.69Q121.16 11.59 120.70 10.76Q120.24 9.94 119.44 9.47Q118.64 9.00 117.63 9.00L117.63 9.00Q116.64 9.00 115.85 9.47Q115.06 9.94 114.59 10.76Q114.12 11.59 114.12 12.69L114.12 12.69Q114.12 13.79 114.59 14.63Q115.06 15.46 115.85 15.92Q116.64 16.38 117.63 16.38ZM122.42 20.92L121.14 20.92L121.14 14.62L121.32 12.71L121.19 10.82L121.19 7.97L122.42 7.97L122.42 20.92ZM130.79 17.51L130.79 17.51Q129.58 17.51 128.68 17.06Q127.78 16.61 127.29 15.71Q126.79 14.81 126.79 13.46L126.79 13.46L126.79 7.97L128.07 7.97L128.07 13.32Q128.07 14.83 128.82 15.60Q129.56 16.36 130.91 16.36L130.91 16.36Q131.90 16.36 132.63 15.96Q133.36 15.55 133.75 14.78Q134.14 14.00 134.14 12.92L134.14 12.92L134.14 7.97L135.41 7.97L135.41 17.42L134.19 17.42L134.19 14.83L134.39 15.30Q133.94 16.34 132.99 16.93Q132.05 17.51 130.79 17.51ZM143.89 17.51L143.89 17.51Q142.42 17.51 141.30 16.89Q140.18 16.27 139.55 15.18Q138.92 14.09 138.92 12.69L138.92 12.69Q138.92 11.29 139.53 10.21Q140.13 9.13 141.18 8.51Q142.24 7.88 143.55 7.88L143.55 7.88Q144.88 7.88 145.92 8.49Q146.95 9.09 147.55 10.18Q148.14 11.27 148.14 12.69L148.14 12.69Q148.14 12.78 148.13 12.88Q148.12 12.98 148.12 13.09L148.12 13.09L139.90 13.09L139.90 12.13L147.44 12.13L146.93 12.51Q146.93 11.48 146.49 10.68Q146.05 9.88 145.30 9.43Q144.54 8.98 143.55 8.98L143.55 8.98Q142.58 8.98 141.80 9.43Q141.03 9.88 140.60 10.69Q140.17 11.50 140.17 12.55L140.17 12.55L140.17 12.74Q140.17 13.82 140.64 14.64Q141.12 15.46 141.98 15.92Q142.83 16.38 143.93 16.38L143.93 16.38Q144.79 16.38 145.54 16.07Q146.29 15.77 146.83 15.14L146.83 15.14L147.55 15.97Q146.92 16.72 145.97 17.12Q145.03 17.51 143.89 17.51ZM161.19 17.51L161.19 17.51Q159.79 17.51 158.68 16.89Q157.57 16.27 156.94 15.18Q156.31 14.09 156.31 12.69L156.31 12.69Q156.31 11.27 156.94 10.19Q157.57 9.11 158.68 8.50Q159.79 7.88 161.19 7.88L161.19 7.88Q162.40 7.88 163.37 8.35Q164.34 8.82 164.90 9.76L164.90 9.76L163.94 10.40Q163.46 9.68 162.74 9.34Q162.02 9.00 161.17 9.00L161.17 9.00Q160.16 9.00 159.35 9.46Q158.54 9.92 158.08 10.75Q157.61 11.57 157.61 12.69L157.61 12.69Q157.61 13.81 158.08 14.63Q158.54 15.46 159.35 15.92Q160.16 16.38 161.17 16.38L161.17 16.38Q162.02 16.38 162.74 16.04Q163.46 15.70 163.94 14.99L163.94 14.99L164.90 15.64Q164.34 16.56 163.37 17.04Q162.40 17.51 161.19 17.51ZM172.15 17.51L172.15 17.51Q170.78 17.51 169.70 16.89Q168.61 16.27 167.98 15.18Q167.35 14.09 167.35 12.69L167.35 12.69Q167.35 11.27 167.98 10.19Q168.61 9.11 169.69 8.50Q170.77 7.88 172.15 7.88L172.15 7.88Q173.56 7.88 174.65 8.50Q175.73 9.11 176.36 10.19Q176.98 11.27 176.98 12.69L176.98 12.69Q176.98 14.09 176.36 15.18Q175.73 16.27 174.64 16.89Q173.54 17.51 172.15 17.51ZM172.15 16.38L172.15 16.38Q173.18 16.38 173.97 15.92Q174.76 15.46 175.22 14.63Q175.68 13.79 175.68 12.69L175.68 12.69Q175.68 11.57 175.22 10.75Q174.76 9.92 173.97 9.46Q173.18 9.00 172.17 9.00L172.17 9.00Q171.16 9.00 170.37 9.46Q169.58 9.92 169.11 10.75Q168.64 11.57 168.64 12.69L168.64 12.69Q168.64 13.79 169.11 14.63Q169.58 15.46 170.37 15.92Q171.16 16.38 172.15 16.38ZM181.76 17.42L180.49 17.42L180.49 7.97L181.71 7.97L181.71 10.57L181.51 10.08Q181.96 9.05 182.95 8.47Q183.94 7.88 185.31 7.88L185.31 7.88Q186.46 7.88 187.34 8.33Q188.21 8.77 188.70 9.67Q189.20 10.57 189.20 11.93L189.20 11.93L189.20 17.42L187.92 17.42L187.92 12.06Q187.92 10.57 187.17 9.80Q186.43 9.04 185.08 9.04L185.08 9.04Q184.07 9.04 183.32 9.44Q182.57 9.85 182.17 10.61Q181.76 11.38 181.76 12.46L181.76 12.46L181.76 17.42ZM197.57 17.51L197.57 17.51Q196.09 17.51 194.98 16.89Q193.86 16.27 193.23 15.18Q192.60 14.09 192.60 12.69L192.60 12.69Q192.60 11.29 193.20 10.21Q193.81 9.13 194.86 8.51Q195.91 7.88 197.23 7.88L197.23 7.88Q198.56 7.88 199.59 8.49Q200.63 9.09 201.22 10.18Q201.82 11.27 201.82 12.69L201.82 12.69Q201.82 12.78 201.81 12.88Q201.80 12.98 201.80 13.09L201.80 13.09L193.57 13.09L193.57 12.13L201.11 12.13L200.61 12.51Q200.61 11.48 200.17 10.68Q199.73 9.88 198.97 9.43Q198.22 8.98 197.23 8.98L197.23 8.98Q196.25 8.98 195.48 9.43Q194.71 9.88 194.27 10.69Q193.84 11.50 193.84 12.55L193.84 12.55L193.84 12.74Q193.84 13.82 194.32 14.64Q194.80 15.46 195.65 15.92Q196.51 16.38 197.60 16.38L197.60 16.38Q198.47 16.38 199.22 16.07Q199.96 15.77 200.50 15.14L200.50 15.14L201.22 15.97Q200.59 16.72 199.65 17.12Q198.70 17.51 197.57 17.51ZM209.25 17.51L209.25 17.51Q207.85 17.51 206.74 16.89Q205.63 16.27 205.00 15.18Q204.37 14.09 204.37 12.69L204.37 12.69Q204.37 11.27 205.00 10.19Q205.63 9.11 206.74 8.50Q207.85 7.88 209.25 7.88L209.25 7.88Q210.46 7.88 211.43 8.35Q212.40 8.82 212.96 9.76L212.96 9.76L212.00 10.40Q211.52 9.68 210.80 9.34Q210.08 9.00 209.23 9.00L209.23 9.00Q208.22 9.00 207.41 9.46Q206.60 9.92 206.14 10.75Q205.67 11.57 205.67 12.69L205.67 12.69Q205.67 13.81 206.14 14.63Q206.60 15.46 207.41 15.92Q208.22 16.38 209.23 16.38L209.23 16.38Q210.08 16.38 210.80 16.04Q211.52 15.70 212.00 14.99L212.00 14.99L212.96 15.64Q212.40 16.56 211.43 17.04Q210.46 17.51 209.25 17.51ZM219.35 17.51L219.35 17.51Q218.02 17.51 217.30 16.79Q216.58 16.07 216.58 14.76L216.58 14.76L216.58 5.89L217.85 5.89L217.85 14.69Q217.85 15.52 218.28 15.97Q218.70 16.42 219.49 16.42L219.49 16.42Q220.34 16.42 220.90 15.93L220.90 15.93L221.35 16.85Q220.97 17.19 220.44 17.35Q219.91 17.51 219.35 17.51ZM220.73 9.04L214.88 9.04L214.88 7.97L220.73 7.97L220.73 9.04ZM231.71 17.42L230.49 17.42L230.49 15.34L230.44 14.99L230.44 11.50Q230.44 10.30 229.76 9.65Q229.09 9.00 227.75 9.00L227.75 9.00Q226.84 9.00 226.01 9.31Q225.18 9.61 224.60 10.12L224.60 10.12L224.03 9.16Q224.75 8.55 225.76 8.22Q226.76 7.88 227.88 7.88L227.88 7.88Q229.72 7.88 230.72 8.79Q231.71 9.70 231.71 11.56L231.71 11.56L231.71 17.42ZM227.23 17.51L227.23 17.51Q226.17 17.51 225.39 17.16Q224.60 16.81 224.19 16.19Q223.78 15.57 223.78 14.76L223.78 14.76Q223.78 14.02 224.13 13.42Q224.48 12.82 225.28 12.45Q226.08 12.08 227.43 12.08L227.43 12.08L230.69 12.08L230.69 13.03L227.47 13.03Q226.10 13.03 225.57 13.52Q225.04 14.00 225.04 14.72L225.04 14.72Q225.04 15.53 225.67 16.02Q226.30 16.51 227.43 16.51L227.43 16.51Q228.51 16.51 229.29 16.01Q230.08 15.52 230.44 14.58L230.44 14.58L230.72 15.46Q230.36 16.40 229.47 16.96Q228.58 17.51 227.23 17.51ZM237.37 17.42L236.09 17.42L236.09 7.97L237.31 7.97L237.31 10.57L237.11 10.08Q237.56 9.05 238.55 8.47Q239.54 7.88 240.91 7.88L240.91 7.88Q242.06 7.88 242.94 8.33Q243.81 8.77 244.31 9.67Q244.80 10.57 244.80 11.93L244.80 11.93L244.80 17.42L243.52 17.42L243.52 12.06Q243.52 10.57 242.78 9.80Q242.03 9.04 240.68 9.04L240.68 9.04Q239.67 9.04 238.92 9.44Q238.18 9.85 237.77 10.61Q237.37 11.38 237.37 12.46L237.37 12.46L237.37 17.42Z" transform="translate(0, 0)"></path></g></svg> <svg y="360.6800003051758" viewBox="0.12999999523162842 8.260000228881836 505.72998046875 23.03999900817871" x="34.635001831054694" height="23.03999900817871" width="505.72998046875" style="overflow: visible;"><g fill="#FFFFFF" fill-opacity="1" style=""><path d="M11.71 30.98L7.55 30.98L7.55 12.10L0.13 12.10L0.13 8.58L19.14 8.58L19.14 12.10L11.71 12.10L11.71 30.98ZM47.07 30.98L30.27 30.98L30.27 8.58L46.62 8.58L46.62 12.06L34.43 12.06L34.43 27.49L47.07 27.49L47.07 30.98ZM45.25 21.31L34.11 21.31L34.11 17.89L45.25 17.89L45.25 21.31ZM70.08 31.30L70.08 31.30Q67.52 31.30 65.33 30.45Q63.14 29.60 61.52 28.05Q59.90 26.50 59.01 24.38Q58.11 22.27 58.11 19.78L58.11 19.78Q58.11 17.28 59.01 15.17Q59.90 13.06 61.54 11.50Q63.17 9.95 65.34 9.10Q67.52 8.26 70.11 8.26L70.11 8.26Q72.86 8.26 75.14 9.20Q77.41 10.14 78.98 12L78.98 12L76.29 14.53Q75.07 13.22 73.57 12.56Q72.06 11.90 70.30 11.90L70.30 11.90Q68.54 11.90 67.09 12.48Q65.63 13.06 64.56 14.11Q63.49 15.17 62.90 16.61Q62.30 18.05 62.30 19.78L62.30 19.78Q62.30 21.50 62.90 22.94Q63.49 24.38 64.56 25.44Q65.63 26.50 67.09 27.07Q68.54 27.65 70.30 27.65L70.30 27.65Q72.06 27.65 73.57 26.99Q75.07 26.34 76.29 24.99L76.29 24.99L78.98 27.55Q77.41 29.38 75.14 30.34Q72.86 31.30 70.08 31.30ZM94.82 30.98L90.69 30.98L90.69 8.58L94.11 8.58L108.16 25.82L106.46 25.82L106.46 8.58L110.59 8.58L110.59 30.98L107.17 30.98L93.12 13.73L94.82 13.73L94.82 30.98ZM135.10 31.30L135.10 31.30Q132.48 31.30 130.27 30.43Q128.06 29.57 126.43 28.02Q124.80 26.46 123.90 24.37Q123.01 22.27 123.01 19.78L123.01 19.78Q123.01 17.28 123.90 15.18Q124.80 13.09 126.43 11.54Q128.06 9.98 130.27 9.12Q132.48 8.26 135.07 8.26L135.07 8.26Q137.70 8.26 139.89 9.12Q142.08 9.98 143.71 11.54Q145.34 13.09 146.24 15.18Q147.14 17.28 147.14 19.78L147.14 19.78Q147.14 22.27 146.24 24.38Q145.34 26.50 143.71 28.03Q142.08 29.57 139.89 30.43Q137.70 31.30 135.10 31.30ZM135.07 27.65L135.07 27.65Q136.77 27.65 138.21 27.07Q139.65 26.50 140.70 25.42Q141.76 24.35 142.35 22.93Q142.94 21.50 142.94 19.78L142.94 19.78Q142.94 18.05 142.35 16.62Q141.76 15.20 140.70 14.13Q139.65 13.06 138.21 12.48Q136.77 11.90 135.07 11.90L135.07 11.90Q133.38 11.90 131.95 12.48Q130.53 13.06 129.46 14.13Q128.38 15.20 127.79 16.62Q127.20 18.05 127.20 19.78L127.20 19.78Q127.20 21.47 127.79 22.91Q128.38 24.35 129.44 25.42Q130.50 26.50 131.94 27.07Q133.38 27.65 135.07 27.65ZM168.26 30.98L164.10 30.98L164.10 12.10L156.67 12.10L156.67 8.58L175.68 8.58L175.68 12.10L168.26 12.10L168.26 30.98ZM190.98 30.98L186.82 30.98L186.82 8.58L190.98 8.58L190.98 30.98ZM207.04 30.98L202.30 30.98L211.74 17.98L211.74 21.12L202.75 8.58L207.46 8.58L214.14 17.86L212.22 17.89L218.85 8.58L223.36 8.58L214.43 20.90L214.43 17.89L223.94 30.98L219.14 30.98L212.10 21.12L213.98 21.12L207.04 30.98ZM258.98 31.30L258.98 31.30Q256.35 31.30 253.95 30.54Q251.55 29.79 250.14 28.61L250.14 28.61L251.58 25.38Q252.93 26.43 254.91 27.14Q256.90 27.84 258.98 27.84L258.98 27.84Q260.74 27.84 261.82 27.46Q262.91 27.07 263.42 26.42Q263.94 25.76 263.94 24.93L263.94 24.93Q263.94 23.90 263.20 23.28Q262.46 22.66 261.30 22.29Q260.13 21.92 258.70 21.60Q257.28 21.28 255.86 20.85Q254.43 20.42 253.26 19.73Q252.10 19.04 251.36 17.89Q250.62 16.74 250.62 14.94L250.62 14.94Q250.62 13.12 251.60 11.60Q252.58 10.08 254.58 9.17Q256.58 8.26 259.65 8.26L259.65 8.26Q261.66 8.26 263.65 8.77Q265.63 9.28 267.10 10.24L267.10 10.24L265.79 13.47Q264.29 12.58 262.69 12.14Q261.09 11.71 259.62 11.71L259.62 11.71Q257.89 11.71 256.82 12.13Q255.74 12.54 255.25 13.22Q254.75 13.89 254.75 14.75L254.75 14.75Q254.75 15.78 255.47 16.40Q256.19 17.02 257.36 17.38Q258.53 17.73 259.97 18.06Q261.41 18.40 262.83 18.82Q264.26 19.23 265.42 19.90Q266.59 20.58 267.31 21.73Q268.03 22.88 268.03 24.64L268.03 24.64Q268.03 26.43 267.06 27.95Q266.08 29.47 264.06 30.38Q262.05 31.30 258.98 31.30ZM290.66 31.30L290.66 31.30Q288.03 31.30 285.82 30.43Q283.62 29.57 281.98 28.02Q280.35 26.46 279.46 24.37Q278.56 22.27 278.56 19.78L278.56 19.78Q278.56 17.28 279.46 15.18Q280.35 13.09 281.98 11.54Q283.62 9.98 285.82 9.12Q288.03 8.26 290.62 8.26L290.62 8.26Q293.25 8.26 295.44 9.12Q297.63 9.98 299.26 11.54Q300.90 13.09 301.79 15.18Q302.69 17.28 302.69 19.78L302.69 19.78Q302.69 22.27 301.79 24.38Q300.90 26.50 299.26 28.03Q297.63 29.57 295.44 30.43Q293.25 31.30 290.66 31.30ZM290.62 27.65L290.62 27.65Q292.32 27.65 293.76 27.07Q295.20 26.50 296.26 25.42Q297.31 24.35 297.90 22.93Q298.50 21.50 298.50 19.78L298.50 19.78Q298.50 18.05 297.90 16.62Q297.31 15.20 296.26 14.13Q295.20 13.06 293.76 12.48Q292.32 11.90 290.62 11.90L290.62 11.90Q288.93 11.90 287.50 12.48Q286.08 13.06 285.01 14.13Q283.94 15.20 283.34 16.62Q282.75 18.05 282.75 19.78L282.75 19.78Q282.75 21.47 283.34 22.91Q283.94 24.35 284.99 25.42Q286.05 26.50 287.49 27.07Q288.93 27.65 290.62 27.65ZM330.98 30.98L315.10 30.98L315.10 8.58L319.26 8.58L319.26 27.46L330.98 27.46L330.98 30.98ZM351.90 31.30L351.90 31.30Q347.30 31.30 344.69 28.70Q342.08 26.11 342.08 21.22L342.08 21.22L342.08 8.58L346.24 8.58L346.24 21.06Q346.24 24.51 347.73 26.08Q349.22 27.65 351.94 27.65L351.94 27.65Q354.66 27.65 356.13 26.08Q357.60 24.51 357.60 21.06L357.60 21.06L357.60 8.58L361.70 8.58L361.70 21.22Q361.70 26.11 359.09 28.70Q356.48 31.30 351.90 31.30ZM384.22 30.98L380.06 30.98L380.06 12.10L372.64 12.10L372.64 8.58L391.65 8.58L391.65 12.10L384.22 12.10L384.22 30.98ZM406.94 30.98L402.78 30.98L402.78 8.58L406.94 8.58L406.94 30.98ZM431.49 31.30L431.49 31.30Q428.86 31.30 426.66 30.43Q424.45 29.57 422.82 28.02Q421.18 26.46 420.29 24.37Q419.39 22.27 419.39 19.78L419.39 19.78Q419.39 17.28 420.29 15.18Q421.18 13.09 422.82 11.54Q424.45 9.98 426.66 9.12Q428.86 8.26 431.46 8.26L431.46 8.26Q434.08 8.26 436.27 9.12Q438.46 9.98 440.10 11.54Q441.73 13.09 442.62 15.18Q443.52 17.28 443.52 19.78L443.52 19.78Q443.52 22.27 442.62 24.38Q441.73 26.50 440.10 28.03Q438.46 29.57 436.27 30.43Q434.08 31.30 431.49 31.30ZM431.46 27.65L431.46 27.65Q433.15 27.65 434.59 27.07Q436.03 26.50 437.09 25.42Q438.14 24.35 438.74 22.93Q439.33 21.50 439.33 19.78L439.33 19.78Q439.33 18.05 438.74 16.62Q438.14 15.20 437.09 14.13Q436.03 13.06 434.59 12.48Q433.15 11.90 431.46 11.90L431.46 11.90Q429.76 11.90 428.34 12.48Q426.91 13.06 425.84 14.13Q424.77 15.20 424.18 16.62Q423.58 18.05 423.58 19.78L423.58 19.78Q423.58 21.47 424.18 22.91Q424.77 24.35 425.82 25.42Q426.88 26.50 428.32 27.07Q429.76 27.65 431.46 27.65ZM460.06 30.98L455.94 30.98L455.94 8.58L459.36 8.58L473.41 25.82L471.71 25.82L471.71 8.58L475.84 8.58L475.84 30.98L472.42 30.98L458.37 13.73L460.06 13.73L460.06 30.98ZM496.80 31.30L496.80 31.30Q494.18 31.30 491.78 30.54Q489.38 29.79 487.97 28.61L487.97 28.61L489.41 25.38Q490.75 26.43 492.74 27.14Q494.72 27.84 496.80 27.84L496.80 27.84Q498.56 27.84 499.65 27.46Q500.74 27.07 501.25 26.42Q501.76 25.76 501.76 24.93L501.76 24.93Q501.76 23.90 501.02 23.28Q500.29 22.66 499.12 22.29Q497.95 21.92 496.53 21.60Q495.10 21.28 493.68 20.85Q492.26 20.42 491.09 19.73Q489.92 19.04 489.18 17.89Q488.45 16.74 488.45 14.94L488.45 14.94Q488.45 13.12 489.42 11.60Q490.40 10.08 492.40 9.17Q494.40 8.26 497.47 8.26L497.47 8.26Q499.49 8.26 501.47 8.77Q503.46 9.28 504.93 10.24L504.93 10.24L503.62 13.47Q502.11 12.58 500.51 12.14Q498.91 11.71 497.44 11.71L497.44 11.71Q495.71 11.71 494.64 12.13Q493.57 12.54 493.07 13.22Q492.58 13.89 492.58 14.75L492.58 14.75Q492.58 15.78 493.30 16.40Q494.02 17.02 495.18 17.38Q496.35 17.73 497.79 18.06Q499.23 18.40 500.66 18.82Q502.08 19.23 503.25 19.90Q504.42 20.58 505.14 21.73Q505.86 22.88 505.86 24.64L505.86 24.64Q505.86 26.43 504.88 27.95Q503.90 29.47 501.89 30.38Q499.87 31.30 496.80 31.30Z" transform="translate(0, 0)"></path></g></svg></svg>